<svg xmlns="http://www.w3.org/2000/svg" xmlns:xlink="http://www.w3.org/1999/xlink" fill="none" version="1.1" width="20" height="20" viewBox="0 0 20 20"><defs><clipPath id="master_svg0_0_1426"><rect x="0" y="0" width="20" height="20" rx="0"/></clipPath></defs><g clip-path="url(#master_svg0_0_1426)"><g><path d="M1.6666666269302368,7.49478C1.6666666269302368,4.7362400000000004,3.8971166269302366,2.5,6.667216626930236,2.5C6.667216626930236,2.5,13.332766626930237,2.5,13.332766626930237,2.5C16.094466626930235,2.5,18.333366626930236,4.7456499999999995,18.333366626930236,7.49478C18.333366626930236,7.49478,18.333366626930236,17.5,18.333366626930236,17.5C18.333366626930236,17.5,6.667216626930236,17.5,6.667216626930236,17.5C3.905486626930237,17.5,1.6666666269302368,15.2543,1.6666666269302368,12.5052C1.6666666269302368,12.5052,1.6666666269302368,7.49478,1.6666666269302368,7.49478ZM16.666666626930237,15.8333C16.666666626930237,15.8333,16.666666626930237,7.49478,16.666666626930237,7.49478C16.666666626930237,5.66283,15.170766626930236,4.16667,13.332766626930237,4.16667C13.332766626930237,4.16667,6.667216626930236,4.16667,6.667216626930236,4.16667C4.820486626930236,4.16667,3.3333366269302367,5.65382,3.3333366269302367,7.49478C3.3333366269302367,7.49478,3.3333366269302367,12.5052,3.3333366269302367,12.5052C3.3333366269302367,14.3372,4.829266626930236,15.8333,6.667216626930236,15.8333C6.667216626930236,15.8333,16.666666626930237,15.8333,16.666666626930237,15.8333ZM11.666666626930237,9.16667C11.666666626930237,9.16667,13.333366626930237,9.16667,13.333366626930237,9.16667C13.333366626930237,9.16667,13.333366626930237,10.83333,13.333366626930237,10.83333C13.333366626930237,10.83333,11.666666626930237,10.83333,11.666666626930237,10.83333C11.666666626930237,10.83333,11.666666626930237,9.16667,11.666666626930237,9.16667ZM6.666666626930237,9.16667C6.666666626930237,9.16667,8.333336626930237,9.16667,8.333336626930237,9.16667C8.333336626930237,9.16667,8.333336626930237,10.83333,8.333336626930237,10.83333C8.333336626930237,10.83333,6.666666626930237,10.83333,6.666666626930237,10.83333C6.666666626930237,10.83333,6.666666626930237,9.16667,6.666666626930237,9.16667Z" fill="#000000" fill-opacity="1"/></g></g></svg>